<svg width="18" height="13" viewBox="0 0 18 13" fill="none" xmlns="http://www.w3.org/2000/svg">
<path fill-rule="evenodd" clip-rule="evenodd" d="M8.84303 3.10495C11.3301 3.10506 13.7221 4.02714 15.5247 5.68062C15.6604 5.80828 15.8773 5.80667 16.011 5.67701L17.3085 4.41354C17.3762 4.34778 17.414 4.25871 17.4134 4.16603C17.4128 4.07335 17.374 3.9847 17.3055 3.91971C12.5745 -0.455007 5.1108 -0.455007 0.379784 3.91971C0.311252 3.98465 0.272368 4.07327 0.271736 4.16595C0.271104 4.25863 0.308777 4.34774 0.376417 4.41354L1.67428 5.67701C1.80788 5.80686 2.025 5.80847 2.16065 5.68062C3.96339 4.02703 6.35568 3.10495 8.84303 3.10495ZM8.83968 7.32523C10.197 7.32515 11.5059 7.83688 12.512 8.76101C12.6481 8.89217 12.8624 8.88933 12.9951 8.75461L14.2824 7.4353C14.3502 7.3661 14.3878 7.27222 14.3868 7.17467C14.3858 7.07712 14.3463 6.98403 14.2772 6.91624C11.2133 4.0254 6.46861 4.0254 3.40478 6.91624C3.33557 6.98403 3.29608 7.07716 3.29517 7.17474C3.29427 7.27233 3.33201 7.3662 3.39995 7.4353L4.68685 8.75461C4.81951 8.88933 5.03387 8.89217 5.16996 8.76101C6.17541 7.8375 7.48325 7.3258 8.83968 7.32523ZM11.3641 10.1188C11.366 10.2241 11.329 10.3257 11.2617 10.3995L9.085 12.8542C9.02119 12.9264 8.9342 12.967 8.84343 12.967C8.75266 12.967 8.66567 12.9264 8.60186 12.8542L6.42483 10.3995C6.35758 10.3256 6.32058 10.224 6.32258 10.1187C6.32457 10.0133 6.36538 9.91358 6.43537 9.84296C7.82547 8.52907 9.86139 8.52907 11.2515 9.84296C11.3214 9.91364 11.3622 10.0134 11.3641 10.1188Z" fill="black"/>
</svg>
