<svg width="20" height="13" viewBox="0 0 20 13" fill="none" xmlns="http://www.w3.org/2000/svg">
  <path fill-rule="evenodd" clip-rule="evenodd"
        d="M19.7725 1.68138C19.7725 1.04834 19.2949 0.535156 18.7058 0.535156H17.6392C17.0501 0.535156 16.5725 1.04834 16.5725 1.68138V11.6153C16.5725 12.2484 17.0501 12.7616 17.6392 12.7616H18.7058C19.2949 12.7616 19.7725 12.2484 19.7725 11.6153V1.68138ZM12.3384 2.98044H13.4051C13.9942 2.98044 14.4717 3.50594 14.4717 4.15417V11.5878C14.4717 12.2361 13.9942 12.7616 13.4051 12.7616H12.3384C11.7493 12.7616 11.2717 12.2361 11.2717 11.5878V4.15417C11.2717 3.50594 11.7493 2.98044 12.3384 2.98044ZM8.00662 5.62949H6.93996C6.35085 5.62949 5.87329 6.16168 5.87329 6.81817V11.5729C5.87329 12.2294 6.35085 12.7616 6.93996 12.7616H8.00662C8.59573 12.7616 9.07329 12.2294 9.07329 11.5729V6.81817C9.07329 6.16168 8.59573 5.62949 8.00662 5.62949ZM2.70584 8.07478H1.63918C1.05007 8.07478 0.57251 8.59937 0.57251 9.24648V11.5899C0.57251 12.237 1.05007 12.7616 1.63918 12.7616H2.70584C3.29495 12.7616 3.77251 12.237 3.77251 11.5899V9.24648C3.77251 8.59937 3.29495 8.07478 2.70584 8.07478Z"
        fill="black"/>
</svg>
