<svg width="23" height="23" viewBox="0 0 23 23" fill="none" xmlns="http://www.w3.org/2000/svg">
<path d="M8.4898 0C10.7414 0 12.9008 0.894458 14.493 2.4866C16.0851 4.07875 16.9796 6.23816 16.9796 8.4898C16.9796 10.5927 16.209 12.5257 14.942 14.0147L15.2947 14.3673H16.3265L22.8571 20.898L20.898 22.8571L14.3673 16.3265V15.2947L14.0147 14.942C12.5257 16.209 10.5927 16.9796 8.4898 16.9796C6.23816 16.9796 4.07875 16.0851 2.4866 14.493C0.894458 12.9008 0 10.7414 0 8.4898C0 6.23816 0.894458 4.07875 2.4866 2.4866C4.07875 0.894458 6.23816 0 8.4898 0ZM8.4898 2.61224C5.22449 2.61224 2.61224 5.22449 2.61224 8.4898C2.61224 11.7551 5.22449 14.3673 8.4898 14.3673C11.7551 14.3673 14.3673 11.7551 14.3673 8.4898C14.3673 5.22449 11.7551 2.61224 8.4898 2.61224Z" fill="#111111"/>
</svg>
