<svg width="16" height="16" viewBox="0 0 16 16" fill="none" xmlns="http://www.w3.org/2000/svg">
  <rect width="16" height="16" rx="8" fill="#FFC300"/>
  <path
    d="M6 12V4.07427H7.04628V5.00796H7.13682C7.32797 4.64721 7.69517 4 8.70624 4C10.0292 4 11 5.09284 11 6.97082C11 8.82759 10.0392 9.94695 8.7163 9.95225C7.72535 9.94695 7.333 9.31035 7.13682 8.93369H7.07646V12H6ZM7.05634 6.9496C7.05634 8.15915 7.55936 8.98143 8.47485 8.98674C9.42052 8.98143 9.91348 8.1061 9.91348 6.9496C9.91348 5.81432 9.43561 4.96021 8.47485 4.96552C7.5493 4.96021 7.05634 5.75066 7.05634 6.9496Z"
    fill="white"/>
</svg>
