<svg width="30" height="30" viewBox="0 0 30 30" fill="none" xmlns="http://www.w3.org/2000/svg">
<path d="M13.749 3.5C15.7645 3.5 17.3328 5.06164 17.333 7.08301C17.333 8.32508 16.7816 9.53476 15.6055 10.9736C14.4184 12.4259 12.7016 13.9875 10.5361 15.9512L10.5342 15.9521L9.99902 16.4385L9.46387 15.9521L9.46289 15.9512L7.92383 14.5488C6.47195 13.2133 5.28381 12.0628 4.39355 10.9736C3.21746 9.53476 2.66602 8.32508 2.66602 7.08301C2.66618 5.06175 4.23372 3.50017 6.24902 3.5C7.3967 3.5 8.51486 4.03964 9.24023 4.88477L9.99902 5.76855L10.7578 4.88477C11.4831 4.03969 12.6014 3.5001 13.749 3.5Z" stroke="url(#paint0_linear_2416_1020)" stroke-width="2"/>
<defs>
<linearGradient id="paint0_linear_2416_1020" x1="17.9993" y1="11" x2="3.33268" y2="6.66667" gradientUnits="userSpaceOnUse">
<stop stop-color="#FF8D28"/>
<stop offset="1" stop-color="#BA5700"/>
</linearGradient>
</defs>
</svg>
