<svg width="555" height="70" viewBox="0 0 555 70" fill="none" xmlns="http://www.w3.org/2000/svg">
<path d="M511.462 69.527C507.66 69.527 504.744 68.4822 502.716 66.3927C500.752 64.2398 499.77 61.4854 499.77 58.1294C499.77 56.1665 500.15 54.4569 500.91 53.0005C501.734 51.5442 502.716 50.2461 503.857 49.1064C504.998 47.9666 506.107 46.8902 507.184 45.877L530.094 23.4619L529.523 21.6572H510.511C507.596 21.6572 505.188 20.7708 503.287 18.9978C501.449 17.1615 500.467 14.6287 500.34 11.3994C500.277 8.23345 501.227 5.669 503.192 3.70608C505.156 1.74317 507.596 0.761719 510.511 0.761719H542.166C545.779 0.761719 548.472 1.67985 550.247 3.51613C552.021 5.3524 552.908 7.94851 552.908 11.3045C552.908 13.7106 552.243 15.9901 550.912 18.143C549.581 20.2325 548.092 22.0688 546.444 23.6518L522.109 47.5867C521.348 48.3465 521 49.1697 521.063 50.0561C521.126 50.8793 521.507 51.5125 522.204 51.9557C522.964 52.399 523.915 52.399 525.056 51.9557C527.147 51.0693 529.112 50.1511 530.949 49.2013C532.787 48.2515 534.593 47.46 536.368 46.8268C538.206 46.1303 540.107 45.7821 542.071 45.7821C546.381 45.7821 549.613 46.9535 551.768 49.2963C553.922 51.5758 555 54.3936 555 57.7495C555 61.1054 553.922 63.9232 551.768 66.2027C549.613 68.4189 546.381 69.527 542.071 69.527H511.462Z" fill="#FEBC2F"/>
<path d="M453.267 69.527C449.464 69.527 446.549 68.4822 444.521 66.3927C442.556 64.2398 441.574 61.4854 441.574 58.1294C441.574 56.1665 441.954 54.4569 442.715 53.0005C443.539 51.5442 444.521 50.2461 445.662 49.1064C446.803 47.9666 447.912 46.8902 448.989 45.877L471.899 23.4619L471.328 21.6572H452.316C449.401 21.6572 446.993 20.7708 445.091 18.9978C443.254 17.1615 442.271 14.6287 442.145 11.3994C442.081 8.23345 443.032 5.669 444.996 3.70608C446.961 1.74317 449.401 0.761719 452.316 0.761719H483.971C487.583 0.761719 490.277 1.67985 492.051 3.51613C493.826 5.3524 494.713 7.94851 494.713 11.3045C494.713 13.7106 494.048 15.9901 492.717 18.143C491.386 20.2325 489.897 22.0688 488.249 23.6518L463.913 47.5867C463.153 48.3465 462.804 49.1697 462.868 50.0561C462.931 50.8793 463.311 51.5125 464.008 51.9557C464.769 52.399 465.72 52.399 466.86 51.9557C468.952 51.0693 470.916 50.1511 472.754 49.2013C474.592 48.2515 476.398 47.46 478.172 46.8268C480.01 46.1303 481.912 45.7821 483.876 45.7821C488.186 45.7821 491.418 46.9535 493.572 49.2963C495.727 51.5758 496.804 54.3936 496.804 57.7495C496.804 61.1054 495.727 63.9232 493.572 66.2027C491.418 68.4189 488.186 69.527 483.876 69.527H453.267Z" fill="#FEBC2F"/>
<path d="M409.152 70.0024C405.35 69.9391 401.706 69.4325 398.22 68.4827C394.798 67.5329 391.725 65.9816 388.999 63.8287C386.274 61.6758 384.12 58.7948 382.535 55.1856C381.014 51.5763 380.254 47.1123 380.254 41.7934V9.59533C380.254 6.55598 381.236 4.30813 383.201 2.85177C385.229 1.3321 387.574 0.572266 390.235 0.572266C392.834 0.572266 395.147 1.3321 397.175 2.85177C399.203 4.30813 400.217 6.55598 400.217 9.59533V37.3294C400.217 41.8251 401.262 45.1177 403.354 47.2073C405.508 49.2968 408.265 50.2466 411.624 50.0567C415.173 49.8034 417.708 48.442 419.229 45.9725C420.813 43.5031 421.257 40.2104 420.559 36.0947C420.116 33.3086 419.609 30.9657 419.039 29.0662C418.532 27.1666 417.993 25.4886 417.423 24.0322C416.916 22.5126 416.472 21.0245 416.092 19.5682C415.711 18.0485 415.426 16.2756 415.236 14.2493C414.856 10.0069 415.711 6.68262 417.803 4.27647C419.957 1.807 422.778 0.572266 426.263 0.572266C429.749 0.572266 432.474 1.74368 434.438 4.08651C436.403 6.42934 437.385 9.97525 437.385 14.7242V41.7934C437.385 47.1123 436.625 51.608 435.104 55.2805C433.646 58.8898 431.587 61.8025 428.925 64.0187C426.326 66.1715 423.316 67.7229 419.894 68.6727C416.535 69.5592 412.955 70.0024 409.152 70.0024Z" fill="#FEBC2F"/>
<path d="M340.085 69.6225C337.17 69.4958 334.445 69.0843 331.91 68.3877C329.439 67.6912 327.252 66.5198 325.351 64.8735C323.45 63.1639 321.961 60.821 320.883 57.845C319.869 54.869 319.362 51.0698 319.362 46.4474C319.362 41.9517 319.964 38.0576 321.168 34.7649C322.436 31.4723 323.925 28.8445 325.636 26.8816C327.347 24.9187 328.9 23.7156 330.294 23.2724L329.819 21.4678H328.203C325.288 21.4678 322.974 20.5497 321.263 18.7134C319.616 16.8138 318.76 14.281 318.697 11.115C318.633 7.94902 319.457 5.41623 321.168 3.51663C322.943 1.55372 325.288 0.572266 328.203 0.572266H354.344C361.189 0.572266 366.132 2.21858 369.174 5.5112C372.216 8.74052 373.737 12.9513 373.737 18.1435C373.737 22.3226 372.754 25.8052 370.79 28.5913C368.889 31.3773 366.005 33.0553 362.139 33.6252V35.0499C366.322 35.2398 369.712 36.6962 372.311 39.4189C374.972 42.0784 376.303 46.0359 376.303 51.2914C376.303 56.9902 374.656 61.5175 371.36 64.8735C368.065 68.1661 362.646 69.7808 355.105 69.7174L340.085 69.6225ZM337.519 26.9766C337.519 28.3696 337.772 29.2878 338.279 29.731C338.786 30.1743 339.737 30.3959 341.131 30.3959H349.877C352.285 30.3959 354.123 30.0476 355.39 29.3511C356.658 28.5913 357.291 27.1349 357.291 24.982C357.291 22.7658 356.658 21.3095 355.39 20.613C354.123 19.9165 352.285 19.5682 349.877 19.5682H341.131C339.737 19.5682 338.786 19.7582 338.279 20.1381C337.772 20.518 337.519 21.4361 337.519 22.8925V26.9766ZM337.519 46.0675C337.519 47.4605 337.772 48.4103 338.279 48.9169C338.85 49.4235 339.864 49.6767 341.321 49.6767H351.112C353.584 49.6767 355.485 49.2335 356.816 48.347C358.147 47.4605 358.812 45.8776 358.812 43.598C358.812 41.3185 358.147 39.7672 356.816 38.944C355.485 38.0576 353.584 37.6143 351.112 37.6143H341.321C339.864 37.6143 338.85 37.8359 338.279 38.2792C337.772 38.7224 337.519 39.6406 337.519 41.0336V46.0675Z" fill="#FEBC2F"/>
<path d="M246.889 9.78529C246.889 6.87258 247.776 4.62473 249.55 3.04174C251.388 1.39542 253.733 0.572266 256.585 0.572266C259.563 0.572266 261.94 1.39542 263.714 3.04174C265.489 4.62473 266.376 6.87258 266.376 9.78529V50.2466C266.376 51.4497 266.693 52.3045 267.327 52.8111C267.96 53.2543 269.006 53.0644 270.464 52.2412C273.632 50.4049 276.452 48.9486 278.924 47.8721C281.396 46.7324 284.121 46.1625 287.099 46.1625C291.218 46.1625 294.324 47.2389 296.415 49.3918C298.506 51.5447 299.552 54.3624 299.552 57.845C299.552 61.5809 298.411 64.4619 296.13 66.4881C293.912 68.5144 290.331 69.5275 285.388 69.5275H265.806C261.623 69.5275 258.137 69.0526 255.349 68.1028C252.561 67.0897 250.438 65.2851 248.98 62.689C247.586 60.0928 246.889 56.3253 246.889 51.3864V9.78529Z" fill="#FEBC2F"/>
<path d="M187.666 69.7177C183.42 69.0845 180.663 67.1533 179.396 63.924C178.128 60.6314 178.382 56.4839 180.156 51.4816L192.704 15.8643C193.845 12.5716 195.144 9.75392 196.602 7.41109C198.123 5.06826 199.992 3.26364 202.21 1.99725C204.492 0.730853 207.312 0.0976562 210.671 0.0976562C215.74 0.0976562 219.543 1.49069 222.078 4.27676C224.676 7.06283 226.831 10.9253 228.542 15.8643L240.995 51.4816C242.769 56.4839 243.086 60.6314 241.945 63.924C240.868 67.1533 238.175 69.0845 233.865 69.7177C230.38 70.161 227.338 69.7494 224.739 68.483C222.205 67.2166 220.684 65.1587 220.177 62.3093C219.796 60.4097 219.733 58.8267 219.986 57.5603C220.303 56.2939 220.589 55.2808 220.842 54.521C221.032 53.8878 221.032 53.2863 220.842 52.7164C220.715 52.0832 220.24 51.7666 219.416 51.7666H201.735C200.911 51.7666 200.404 52.0832 200.214 52.7164C200.087 53.2863 200.151 53.8878 200.404 54.521C200.658 55.2808 200.911 56.2939 201.165 57.5603C201.418 58.8267 201.386 60.4097 201.069 62.3093C200.562 65.1587 199.073 67.2166 196.602 68.483C194.13 69.7494 191.151 70.161 187.666 69.7177ZM217.61 38.4694L212.667 22.9877C212.54 22.3546 212.318 21.8797 212.001 21.5631C211.748 21.1831 211.304 20.9932 210.671 20.9932C210.037 20.9932 209.562 21.1831 209.245 21.5631C208.991 21.8797 208.769 22.3546 208.579 22.9877L203.731 38.4694H217.61Z" fill="#FEBC2F"/>
<path d="M150.202 69.907C143.991 69.907 138.383 68.6406 133.376 66.1078C128.433 63.5117 124.536 59.6808 121.684 54.6153C118.832 49.5497 117.406 43.3127 117.406 35.9043C117.406 28.4958 118.832 22.1006 121.684 16.7184C124.599 11.3362 128.56 7.22041 133.567 4.37102C138.636 1.45831 144.403 0.00195312 150.868 0.00195312C158.346 0.00195312 164.081 1.04673 168.073 3.13628C172.066 5.22583 174.062 8.3285 174.062 12.4443C174.062 15.6103 173.207 18.238 171.496 20.3276C169.785 22.3538 167.44 23.3669 164.461 23.3669C161.926 23.3669 159.455 23.0503 157.046 22.4172C154.702 21.7206 151.945 21.3724 148.776 21.3724C144.72 21.3724 141.52 22.5438 139.175 24.8866C136.83 27.2295 135.658 30.3005 135.658 34.0996C135.658 37.8355 136.83 40.9698 139.175 43.5026C141.52 45.9721 144.72 47.2068 148.776 47.2068C150.931 47.2068 152.895 47.0485 154.67 46.7319C156.508 46.352 158.282 45.9721 159.993 45.5922C161.768 45.2123 163.669 45.0223 165.697 45.0223C169.056 45.0223 171.527 46.1304 173.112 48.3466C174.696 50.4995 175.488 53.1906 175.488 56.4199C175.488 59.6492 174.316 62.2769 171.971 64.3032C169.626 66.2661 166.521 67.6908 162.655 68.5773C158.853 69.4637 154.702 69.907 150.202 69.907Z" fill="#FEBC2F"/>
<path d="M81.5646 70.002C74.7836 70.002 69.0483 68.5139 64.3587 65.5379C59.669 62.5619 56.1201 58.4461 53.7119 53.1906C51.3037 47.935 50.0996 41.888 50.0996 35.0494C50.0996 28.2742 51.3037 22.2588 53.7119 17.0033C56.1201 11.6844 59.669 7.537 64.3587 4.56098C69.0483 1.52163 74.7836 0.00195312 81.5646 0.00195312C88.3456 0.00195312 94.0492 1.52163 98.6755 4.56098C103.365 7.537 106.914 11.6844 109.322 17.0033C111.73 22.2588 112.935 28.2742 112.935 35.0494C112.935 41.888 111.73 47.935 109.322 53.1906C106.914 58.4461 103.365 62.5619 98.6755 65.5379C94.0492 68.5139 88.3456 70.002 81.5646 70.002ZM62.0772 33.5298C62.0772 35.4927 62.5525 37.3606 63.5031 39.1336C64.4537 40.8432 66.3232 42.2362 69.1117 43.3127C71.9001 44.3258 76.0511 44.8323 81.5646 44.8323C87.0781 44.8323 91.1974 44.3258 93.9225 43.3127C96.7109 42.2362 98.5804 40.8432 99.531 39.1336C100.482 37.3606 100.957 35.4927 100.957 33.5298C100.957 31.5035 100.482 29.6989 99.531 28.1159C98.5804 26.4696 96.7109 25.1716 93.9225 24.2218C91.1974 23.2086 87.0781 22.7021 81.5646 22.7021C76.0511 22.7021 71.9001 23.2086 69.1117 24.2218C66.3232 25.1716 64.4537 26.4696 63.5031 28.1159C62.5525 29.6989 62.0772 31.5035 62.0772 33.5298Z" fill="#FEBC2F"/>
<path d="M0 9.78529C0 6.87258 0.88723 4.62473 2.66169 3.04174C4.49953 1.39542 6.84435 0.572266 9.69616 0.572266C12.6747 0.572266 15.0512 1.39542 16.8257 3.04174C18.6002 4.62473 19.4874 6.87258 19.4874 9.78529V50.2466C19.4874 51.4497 19.8042 52.3045 20.438 52.8111C21.0717 53.2543 22.1174 53.0644 23.575 52.2412C26.7437 50.4049 29.5638 48.9486 32.0354 47.8721C34.5069 46.7324 37.232 46.1625 40.2105 46.1625C44.3298 46.1625 47.4351 47.2389 49.5265 49.3918C51.6178 51.5447 52.6635 54.3624 52.6635 57.845C52.6635 61.5809 51.5227 64.4619 49.2413 66.4881C47.0232 68.5144 43.4426 69.5275 38.4995 69.5275H18.917C14.7344 69.5275 11.2488 69.0526 8.46037 68.1028C5.67194 67.0897 3.54892 65.2851 2.09133 62.689C0.69711 60.0928 0 56.3253 0 51.3864V9.78529Z" fill="#FEBC2F"/>
</svg>
