<svg width="190" height="25" viewBox="0 0 190 25" fill="none" xmlns="http://www.w3.org/2000/svg">
<path d="M175.096 24.8248C173.794 24.8248 172.796 24.4518 172.102 23.7057C171.429 22.937 171.093 21.9535 171.093 20.7552C171.093 20.0543 171.223 19.4439 171.483 18.9239C171.765 18.4039 172.102 17.9404 172.492 17.5334C172.883 17.1265 173.262 16.7421 173.631 16.3804L181.474 8.3768L181.279 7.73244H174.77C173.772 7.73244 172.948 7.41591 172.297 6.78286C171.668 6.1272 171.331 5.22285 171.288 4.06979C171.266 2.93934 171.592 2.02368 172.264 1.3228C172.937 0.621923 173.772 0.271484 174.77 0.271484H185.607C186.844 0.271484 187.766 0.599314 188.373 1.25497C188.981 1.91063 189.284 2.8376 189.284 4.03588C189.284 4.89502 189.057 5.70894 188.601 6.47764C188.145 7.22374 187.636 7.8794 187.071 8.44462L178.74 16.9908C178.48 17.2621 178.361 17.556 178.382 17.8726C178.404 18.1665 178.534 18.3926 178.773 18.5508C179.033 18.7091 179.359 18.7091 179.749 18.5508C180.465 18.2343 181.138 17.9065 181.767 17.5673C182.396 17.2282 183.014 16.9456 183.622 16.7195C184.251 16.4708 184.902 16.3465 185.575 16.3465C187.05 16.3465 188.156 16.7647 188.894 17.6012C189.632 18.4152 190 19.4213 190 20.6195C190 21.8178 189.632 22.8239 188.894 23.6378C188.156 24.4292 187.05 24.8248 185.575 24.8248H175.096Z" fill="#111111"/>
<path d="M155.173 24.8248C153.871 24.8248 152.873 24.4518 152.179 23.7057C151.506 22.937 151.17 21.9535 151.17 20.7552C151.17 20.0543 151.3 19.4439 151.56 18.9239C151.842 18.4039 152.179 17.9404 152.569 17.5334C152.96 17.1265 153.339 16.7421 153.708 16.3804L161.551 8.3768L161.356 7.73244H154.847C153.849 7.73244 153.025 7.41591 152.374 6.78286C151.745 6.1272 151.409 5.22285 151.365 4.06979C151.343 2.93934 151.669 2.02368 152.341 1.3228C153.014 0.621923 153.849 0.271484 154.847 0.271484H165.684C166.921 0.271484 167.843 0.599314 168.45 1.25497C169.058 1.91063 169.362 2.8376 169.362 4.03588C169.362 4.89502 169.134 5.70894 168.678 6.47764C168.223 7.22374 167.713 7.8794 167.149 8.44462L158.818 16.9908C158.557 17.2621 158.438 17.556 158.46 17.8726C158.481 18.1665 158.611 18.3926 158.85 18.5508C159.11 18.7091 159.436 18.7091 159.826 18.5508C160.542 18.2343 161.215 17.9065 161.844 17.5673C162.473 17.2282 163.092 16.9456 163.699 16.7195C164.328 16.4708 164.979 16.3465 165.652 16.3465C167.127 16.3465 168.233 16.7647 168.971 17.6012C169.709 18.4152 170.078 19.4213 170.078 20.6195C170.078 21.8178 169.709 22.8239 168.971 23.6378C168.233 24.4292 167.127 24.8248 165.652 24.8248H155.173Z" fill="#111111"/>
<path d="M140.071 24.9938C138.769 24.9712 137.522 24.7904 136.328 24.4512C135.157 24.1121 134.105 23.5582 133.172 22.7895C132.239 22.0208 131.501 20.9921 130.959 19.7034C130.438 18.4146 130.178 16.8207 130.178 14.9216V3.4249C130.178 2.33967 130.514 1.53705 131.187 1.01705C131.881 0.474431 132.684 0.203125 133.595 0.203125C134.484 0.203125 135.276 0.474431 135.97 1.01705C136.665 1.53705 137.012 2.33967 137.012 3.4249V13.3276C137.012 14.9329 137.37 16.1085 138.086 16.8546C138.823 17.6007 139.767 17.9399 140.917 17.872C142.132 17.7816 143 17.2955 143.52 16.4137C144.063 15.532 144.215 14.3563 143.976 12.8868C143.824 11.892 143.651 11.0554 143.455 10.3772C143.282 9.69889 143.097 9.09975 142.902 8.57974C142.729 8.03713 142.577 7.50582 142.447 6.98581C142.316 6.4432 142.219 5.81015 142.154 5.08666C142.023 3.57186 142.316 2.38489 143.032 1.52575C143.77 0.644 144.735 0.203125 145.929 0.203125C147.122 0.203125 148.055 0.62139 148.727 1.45792C149.4 2.29445 149.736 3.56055 149.736 5.25623V14.9216C149.736 16.8207 149.476 18.4259 148.955 19.7373C148.456 21.026 147.751 22.066 146.84 22.8573C145.95 23.626 144.92 24.1799 143.748 24.5191C142.598 24.8356 141.373 24.9938 140.071 24.9938Z" fill="#111111"/>
<path d="M116.426 24.8582C115.428 24.813 114.495 24.666 113.627 24.4173C112.781 24.1686 112.033 23.7504 111.382 23.1625C110.731 22.5521 110.221 21.7155 109.852 20.6529C109.505 19.5903 109.332 18.2338 109.332 16.5833C109.332 14.9781 109.538 13.5876 109.95 12.412C110.384 11.2363 110.894 10.298 111.479 9.59715C112.065 8.89627 112.597 8.4667 113.074 8.30843L112.911 7.66408H112.358C111.36 7.66408 110.568 7.33625 109.982 6.68059C109.418 6.00232 109.125 5.09796 109.104 3.96752C109.082 2.83707 109.364 1.93271 109.95 1.25444C110.557 0.553563 111.36 0.203125 112.358 0.203125H121.307C123.651 0.203125 125.343 0.790957 126.384 1.96662C127.426 3.11968 127.946 4.62318 127.946 6.47711C127.946 7.9693 127.61 9.21279 126.937 10.2076C126.287 11.2024 125.299 11.8015 123.976 12.005V12.5137C125.408 12.5815 126.569 13.1015 127.458 14.0737C128.369 15.0233 128.825 16.4364 128.825 18.3129C128.825 20.3477 128.261 21.9642 127.133 23.1625C126.004 24.3382 124.15 24.9147 121.568 24.8921L116.426 24.8582ZM115.547 9.63106C115.547 10.1285 115.634 10.4563 115.808 10.6145C115.981 10.7728 116.307 10.8519 116.784 10.8519H119.778C120.602 10.8519 121.231 10.7276 121.665 10.4789C122.099 10.2076 122.316 9.68758 122.316 8.91888C122.316 8.12756 122.099 7.60756 121.665 7.35886C121.231 7.11016 120.602 6.98581 119.778 6.98581H116.784C116.307 6.98581 115.981 7.05364 115.808 7.18929C115.634 7.32494 115.547 7.65278 115.547 8.17278V9.63106ZM115.547 16.4477C115.547 16.9451 115.634 17.2842 115.808 17.4651C116.003 17.6459 116.35 17.7364 116.849 17.7364H120.201C121.047 17.7364 121.698 17.5781 122.154 17.2616C122.609 16.9451 122.837 16.3798 122.837 15.5659C122.837 14.752 122.609 14.1981 122.154 13.9042C121.698 13.5876 121.047 13.4294 120.201 13.4294H116.849C116.35 13.4294 116.003 13.5085 115.808 13.6668C115.634 13.825 115.547 14.1529 115.547 14.6502V16.4477Z" fill="#111111"/>
<path d="M84.5205 3.49273C84.5205 2.45272 84.8242 1.6501 85.4317 1.08488C86.0609 0.497042 86.8636 0.203125 87.8399 0.203125C88.8596 0.203125 89.6732 0.497042 90.2806 1.08488C90.8881 1.6501 91.1919 2.45272 91.1919 3.49273V17.9399C91.1919 18.3694 91.3003 18.6746 91.5173 18.8555C91.7342 19.0138 92.0922 18.9459 92.5912 18.652C93.676 17.9964 94.6414 17.4764 95.4876 17.092C96.3337 16.6851 97.2666 16.4816 98.2863 16.4816C99.6965 16.4816 100.76 16.8659 101.476 17.6346C102.191 18.4033 102.549 19.4094 102.549 20.6529C102.549 21.9869 102.159 23.0156 101.378 23.739C100.619 24.4625 99.3927 24.8243 97.7005 24.8243H90.9966C89.5647 24.8243 88.3714 24.6547 87.4168 24.3156C86.4622 23.9538 85.7355 23.3095 85.2365 22.3825C84.7592 21.4555 84.5205 20.1103 84.5205 18.3468V3.49273Z" fill="#111111"/>
<path d="M64.246 24.8937C62.7924 24.6676 61.8487 23.978 61.4147 22.825C60.9808 21.6493 61.0676 20.1684 61.6751 18.3823L65.9708 5.66479C66.3613 4.48912 66.8061 3.48302 67.3051 2.64649C67.8258 1.80996 68.4658 1.1656 69.2251 0.713424C70.0062 0.261246 70.9716 0.0351562 72.1215 0.0351562C73.8571 0.0351562 75.1588 0.532554 76.0266 1.52735C76.9162 2.52214 77.6538 3.90129 78.2396 5.66479L82.5027 18.3823C83.1102 20.1684 83.2187 21.6493 82.8282 22.825C82.4593 23.978 81.5373 24.6676 80.062 24.8937C78.8688 25.052 77.8274 24.905 76.9379 24.4528C76.07 24.0007 75.5493 23.2659 75.3758 22.2485C75.2456 21.5702 75.2239 21.005 75.3107 20.5528C75.4192 20.1006 75.5168 19.7389 75.6036 19.4676C75.6687 19.2415 75.6687 19.0267 75.6036 18.8232C75.5602 18.5971 75.3975 18.4841 75.1154 18.4841H69.0624C68.7804 18.4841 68.6068 18.5971 68.5417 18.8232C68.4983 19.0267 68.52 19.2415 68.6068 19.4676C68.6936 19.7389 68.7804 20.1006 68.8671 20.5528C68.9539 21.005 68.9431 21.5702 68.8346 22.2485C68.661 23.2659 68.1512 24.0007 67.3051 24.4528C66.4589 24.905 65.4393 25.052 64.246 24.8937ZM74.4971 13.7362L72.8049 8.20829C72.7615 7.9822 72.6855 7.81264 72.5771 7.69959C72.4903 7.56394 72.3384 7.49611 72.1215 7.49611C71.9045 7.49611 71.7418 7.56394 71.6333 7.69959C71.5465 7.81264 71.4706 7.9822 71.4055 8.20829L69.7458 13.7362H74.4971Z" fill="#111111"/>
<path d="M51.4208 24.9603C49.2946 24.9603 47.3746 24.5081 45.6606 23.6038C43.9684 22.6768 42.6341 21.3089 41.6578 19.5002C40.6815 17.6915 40.1934 15.4645 40.1934 12.8193C40.1934 10.174 40.6815 7.89053 41.6578 5.96877C42.6558 4.047 44.0118 2.57742 45.7257 1.56002C47.4613 0.520006 49.4356 0 51.6486 0C54.2086 0 56.1721 0.373048 57.5389 1.11914C58.9057 1.86524 59.5891 2.97308 59.5891 4.44266C59.5891 5.57311 59.2962 6.51138 58.7104 7.25747C58.1247 7.98096 57.3219 8.3427 56.3022 8.3427C55.4344 8.3427 54.5883 8.22966 53.7639 8.00357C52.9611 7.75487 52.0174 7.63052 50.9326 7.63052C49.5441 7.63052 48.4485 8.04879 47.6457 8.88532C46.843 9.72185 46.4417 10.8184 46.4417 12.1749C46.4417 13.5089 46.843 14.628 47.6457 15.5324C48.4485 16.4141 49.5441 16.855 50.9326 16.855C51.6703 16.855 52.3428 16.7985 52.9503 16.6854C53.5795 16.5498 54.1869 16.4141 54.7727 16.2785C55.3802 16.1428 56.0311 16.075 56.7253 16.075C57.8752 16.075 58.7213 16.4706 59.2637 17.2619C59.8061 18.0306 60.0773 18.9915 60.0773 20.1446C60.0773 21.2976 59.6759 22.2359 58.8732 22.9594C58.0704 23.6603 57.0073 24.169 55.6839 24.4855C54.3822 24.802 52.9611 24.9603 51.4208 24.9603Z" fill="#111111"/>
<path d="M27.9232 24.9942C25.6017 24.9942 23.6383 24.4629 22.0328 23.4003C20.4274 22.3377 19.2124 20.8681 18.388 18.9915C17.5636 17.115 17.1514 14.9558 17.1514 12.5141C17.1514 10.0949 17.5636 7.94705 18.388 6.07051C19.2124 4.17135 20.4274 2.69047 22.0328 1.62784C23.6383 0.542615 25.6017 0 27.9232 0C30.2446 0 32.1972 0.542615 33.7809 1.62784C35.3864 2.69047 36.6014 4.17135 37.4258 6.07051C38.2502 7.94705 38.6624 10.0949 38.6624 12.5141C38.6624 14.9558 38.2502 17.115 37.4258 18.9915C36.6014 20.8681 35.3864 22.3377 33.7809 23.4003C32.1972 24.4629 30.2446 24.9942 27.9232 24.9942ZM21.2518 11.9714C21.2518 12.6723 21.4145 13.3393 21.74 13.9723C22.0654 14.5828 22.7054 15.0802 23.66 15.4645C24.6146 15.8263 26.0357 16.0071 27.9232 16.0071C29.8107 16.0071 31.2209 15.8263 32.1538 15.4645C33.1084 15.0802 33.7484 14.5828 34.0738 13.9723C34.3993 13.3393 34.562 12.6723 34.562 11.9714C34.562 11.248 34.3993 10.6036 34.0738 10.0384C33.7484 9.45055 33.1084 8.98706 32.1538 8.64793C31.2209 8.28618 29.8107 8.10531 27.9232 8.10531C26.0357 8.10531 24.6146 8.28618 23.66 8.64793C22.7054 8.98706 22.0654 9.45055 21.74 10.0384C21.4145 10.6036 21.2518 11.248 21.2518 11.9714Z" fill="#111111"/>
<path d="M0 3.49273C0 2.45272 0.303737 1.6501 0.91121 1.08488C1.54038 0.497042 2.34311 0.203125 3.31941 0.203125C4.33909 0.203125 5.15267 0.497042 5.76015 1.08488C6.36762 1.6501 6.67136 2.45272 6.67136 3.49273V17.9399C6.67136 18.3694 6.77983 18.6746 6.99679 18.8555C7.21374 19.0138 7.57172 18.9459 8.07071 18.652C9.15549 17.9964 10.1209 17.4764 10.9671 17.092C11.8132 16.6851 12.7461 16.4816 13.7658 16.4816C15.176 16.4816 16.2391 16.8659 16.955 17.6346C17.671 18.4033 18.0289 19.4094 18.0289 20.6529C18.0289 21.9869 17.6384 23.0156 16.8574 23.739C16.098 24.4625 14.8722 24.8243 13.18 24.8243H6.4761C5.0442 24.8243 3.85094 24.6547 2.89634 24.3156C1.94174 23.9538 1.21495 23.3095 0.71595 22.3825C0.23865 21.4555 0 20.1103 0 18.3468V3.49273Z" fill="#111111"/>
</svg>
